<svg width="12" height="13" viewBox="0 0 12 13" fill="none" xmlns="http://www.w3.org/2000/svg">
<path d="M6 0.5C4.81331 0.5 3.65328 0.851894 2.66658 1.51118C1.67989 2.17047 0.910851 3.10754 0.456725 4.2039C0.00259972 5.30025 -0.11622 6.50665 0.115291 7.67054C0.346802 8.83443 0.918247 9.90352 1.75736 10.7426C2.59648 11.5818 3.66557 12.1532 4.82946 12.3847C5.99335 12.6162 7.19975 12.4974 8.2961 12.0433C9.39246 11.5891 10.3295 10.8201 10.9888 9.83342C11.6481 8.84673 12 7.68669 12 6.5C11.9983 4.90922 11.3656 3.38407 10.2408 2.25921C9.11593 1.13436 7.59078 0.50168 6 0.5ZM7.71116 6.17346C7.75407 6.21633 7.78811 6.26723 7.81134 6.32326C7.83456 6.37929 7.84652 6.43935 7.84652 6.5C7.84652 6.56065 7.83456 6.62071 7.81134 6.67674C7.78811 6.73277 7.75407 6.78367 7.71116 6.82654L5.40346 9.13423C5.36058 9.17711 5.30967 9.21113 5.25365 9.23433C5.19762 9.25754 5.13757 9.26949 5.07692 9.26949C5.01628 9.26949 4.95623 9.25754 4.9002 9.23433C4.84418 9.21113 4.79327 9.17711 4.75039 9.13423C4.7075 9.09135 4.67349 9.04044 4.65028 8.98441C4.62707 8.92838 4.61513 8.86834 4.61513 8.80769C4.61513 8.74705 4.62707 8.687 4.65028 8.63097C4.67349 8.57494 4.7075 8.52403 4.75039 8.48115L6.73212 6.5L4.75039 4.51885C4.66378 4.43224 4.61513 4.31478 4.61513 4.19231C4.61513 4.06983 4.66378 3.95237 4.75039 3.86577C4.83699 3.77917 4.95445 3.73051 5.07692 3.73051C5.1994 3.73051 5.31686 3.77917 5.40346 3.86577L7.71116 6.17346Z" fill="#EA5413"/>
</svg>
