<svg width="32" height="32" viewBox="0 0 32 32" fill="none" xmlns="http://www.w3.org/2000/svg">
<g clip-path="url(#clip0_2037_4996)">
<rect width="32" height="32" transform="translate(32 32) rotate(-180)" fill="white"/>
<rect x="32" y="32" width="32" height="32" transform="rotate(-180 32 32)" fill="white"/>
<path d="M16 29C18.5712 29 21.0846 28.2376 23.2224 26.8091C25.3602 25.3806 27.0265 23.3503 28.0104 20.9749C28.9944 18.5994 29.2518 15.9856 28.7502 13.4638C28.2486 10.9421 27.0105 8.62569 25.1924 6.80761C23.3743 4.98953 21.0579 3.7514 18.5362 3.24979C16.0144 2.74818 13.4006 3.00563 11.0251 3.98957C8.64967 4.9735 6.61935 6.63975 5.19089 8.77759C3.76243 10.9154 3 13.4288 3 16C3.00363 19.4467 4.37444 22.7512 6.81163 25.1884C9.24881 27.6256 12.5533 28.9964 16 29ZM16 5C18.1756 5 20.3023 5.64514 22.1113 6.85383C23.9202 8.06253 25.3301 9.78049 26.1627 11.7905C26.9952 13.8005 27.2131 16.0122 26.7886 18.146C26.3642 20.2798 25.3165 22.2398 23.7782 23.7782C22.2398 25.3166 20.2798 26.3642 18.146 26.7886C16.0122 27.2131 13.8005 26.9952 11.7905 26.1627C9.78049 25.3301 8.06252 23.9202 6.85383 22.1113C5.64513 20.3023 5 18.1756 5 16C5.0033 13.0836 6.16329 10.2877 8.22548 8.22548C10.2877 6.16329 13.0836 5.00331 16 5ZM12.2925 16.7075C12.1995 16.6146 12.1258 16.5043 12.0754 16.3829C12.0251 16.2615 11.9992 16.1314 11.9992 16C11.9992 15.8686 12.0251 15.7385 12.0754 15.6171C12.1258 15.4957 12.1995 15.3854 12.2925 15.2925L17.2925 10.2925C17.3854 10.1996 17.4957 10.1259 17.6171 10.0756C17.7385 10.0253 17.8686 9.99944 18 9.99944C18.1314 9.99944 18.2615 10.0253 18.3829 10.0756C18.5043 10.1259 18.6146 10.1996 18.7075 10.2925C18.8004 10.3854 18.8741 10.4957 18.9244 10.6171C18.9747 10.7385 19.0006 10.8686 19.0006 11C19.0006 11.1314 18.9747 11.2615 18.9244 11.3829C18.8741 11.5043 18.8004 11.6146 18.7075 11.7075L14.4137 16L18.7075 20.2925C18.8951 20.4801 19.0006 20.7346 19.0006 21C19.0006 21.2654 18.8951 21.5199 18.7075 21.7075C18.5199 21.8951 18.2654 22.0006 18 22.0006C17.7346 22.0006 17.4801 21.8951 17.2925 21.7075L12.2925 16.7075Z" fill="black"/>
</g>
<defs>
<clipPath id="clip0_2037_4996">
<rect width="32" height="32" fill="white" transform="translate(32 32) rotate(-180)"/>
</clipPath>
</defs>
</svg>
