<svg width="40" height="32" viewBox="0 0 40 32" fill="none" xmlns="http://www.w3.org/2000/svg">
<g clip-path="url(#clip0_1045_3993)">
<path d="M24.027 15.3301C24.027 13.1248 22.2212 11.332 19.9998 11.332C17.7785 11.332 15.9727 13.1248 15.9727 15.3301C15.9727 17.5354 17.7785 19.3282 19.9998 19.3282C22.2212 19.3282 24.027 17.5354 24.027 15.3301ZM17.1377 15.3301C17.1377 13.7648 18.4231 12.4887 19.9998 12.4887C21.5765 12.4887 22.862 13.7648 22.862 15.3301C22.862 16.8954 21.5765 18.1716 19.9998 18.1716C18.4231 18.1716 17.1377 16.8954 17.1377 15.3301Z" fill="#EA5413"/>
<path d="M20 0C8.97087 0 0 8.90602 0 19.8554C0 24.1928 1.38252 28.3104 4 31.7687C4.10874 31.9152 4.28349 32 4.46602 32H9.28155C9.60388 32 9.86408 31.7417 9.86408 31.4217C9.86408 30.0299 13.0408 28.3566 18.1942 28.0212C18.9786 28.9349 19.5573 29.6019 19.5573 29.6019C19.6699 29.7292 19.8291 29.8024 20 29.8024C20.1709 29.8024 20.334 29.7292 20.4427 29.5981L21.7981 28.0173C26.9553 28.3528 30.1359 30.026 30.1359 31.4178C30.1359 31.7378 30.3961 31.9961 30.7184 31.9961H35.534C35.7165 31.9961 35.8913 31.9113 36 31.7648C38.6175 28.3065 40 24.1851 40 19.8516C40 8.90602 31.0291 0 20 0ZM20 1.15663C30.3845 1.15663 38.8349 9.54602 38.8349 19.8554C38.8349 20.4222 38.8078 20.9851 38.7573 21.5441C37.8291 23.1171 35.6466 25.2222 30.5981 25.2222H24.2058C24.9243 24.3855 25.5495 23.6607 25.8602 23.3099C27.6233 21.2973 29.6466 18.5716 29.6466 15.333C29.6466 10.0511 25.3204 5.75614 20 5.75614C14.6796 5.75614 10.3534 10.0511 10.3534 15.333C10.3534 18.452 12.2641 21.1123 14.1359 23.306C14.4699 23.6954 15.0835 24.4125 15.7825 25.226H9.40194C4.35728 25.226 2.17087 23.121 1.24272 21.548C1.19223 20.9889 1.16505 20.426 1.16505 19.8593C1.16505 9.54602 9.61553 1.15663 20 1.15663ZM15.0252 22.5542C13.2932 20.5224 11.5184 18.0781 11.5184 15.3292C11.5184 10.6872 15.3243 6.90892 20 6.90892C24.6757 6.90892 28.4816 10.6872 28.4816 15.3292C28.4816 18.1822 26.6097 20.6843 24.9825 22.5465C24.1631 23.4834 21.1456 27.0034 20 28.3335L18.8932 27.0496C17.5456 25.4843 15.7049 23.3446 15.0252 22.5542Z" fill="#EA5413"/>
</g>
<defs>
<clipPath id="clip0_1045_3993">
<rect width="40" height="32" fill="white"/>
</clipPath>
</defs>
</svg>
