<svg width="40" height="40" viewBox="0 0 40 40" fill="none" xmlns="http://www.w3.org/2000/svg">
<g clip-path="url(#clip0_1045_4487)">
<path d="M20.0019 40C8.97309 40 0 31.0269 0 20.0019C0 8.97697 8.97309 0 20.0019 0C31.0308 0 40 8.97309 40 20.0019C40 31.0308 31.0269 40.0039 20.0019 40.0039V40ZM20.0019 1.16584C9.6143 1.16584 1.16584 9.6143 1.16584 20.0019C1.16584 30.3896 9.6143 38.838 20.0019 38.838C30.3896 38.838 38.8342 30.3896 38.8342 20.0019C38.8342 9.6143 30.3857 1.16584 20.0019 1.16584Z" fill="#DE5318"/>
<path d="M20.0021 32.0375C13.3646 32.0375 7.96289 26.6358 7.96289 19.9982C7.96289 13.3607 13.3646 7.95898 20.0021 7.95898C20.4296 7.95898 20.7794 8.30874 20.7794 8.73621C20.7794 9.16369 20.4296 9.51344 20.0021 9.51344C14.2196 9.51344 9.51735 14.2157 9.51735 19.9982C9.51735 25.7808 14.2196 30.483 20.0021 30.483C23.9971 30.483 27.7045 28.1591 29.4454 24.5606C29.632 24.1719 30.0983 24.0126 30.4831 24.1991C30.8678 24.3857 31.031 24.852 30.8445 25.2367C28.847 29.3677 24.5878 32.0375 20.0021 32.0375Z" fill="#DE5318"/>
<path d="M26.3369 24.9373L31.2607 20.002L33.0755 26.7366L26.3369 24.9373Z" fill="#DE5318"/>
<path d="M25.388 20.7791H19.2207V12.4706C19.2207 12.0431 19.5705 11.6934 19.9979 11.6934C20.4254 11.6934 20.7752 12.0431 20.7752 12.4706V19.2247H25.388C25.8155 19.2247 26.1652 19.5744 26.1652 20.0019C26.1652 20.4294 25.8155 20.7791 25.388 20.7791Z" fill="#DE5318"/>
</g>
<defs>
<clipPath id="clip0_1045_4487">
<rect width="40" height="40" fill="white"/>
</clipPath>
</defs>
</svg>
