<svg width="40" height="41" viewBox="0 0 40 41" fill="none" xmlns="http://www.w3.org/2000/svg">
<g clip-path="url(#clip0_1045_4188)">
<path d="M20.0019 40.5C8.97309 40.5 0 31.5269 0 20.5019C0 9.47697 8.97309 0.5 20.0019 0.5C31.0308 0.5 40.0039 9.47309 40.0039 20.5019C40.0039 31.5308 31.0308 40.5039 20.0019 40.5039V40.5ZM20.0019 1.66584C9.6143 1.66584 1.16584 10.1143 1.16584 20.5019C1.16584 30.8896 9.6143 39.338 20.0019 39.338C30.3896 39.338 38.838 30.8896 38.838 20.5019C38.838 10.1143 30.3857 1.66584 20.0019 1.66584Z" fill="#DE5318"/>
<path d="M25.6838 28.5688L14.791 23.9365L10.0732 25.4793V15.5192L14.791 17.062L25.6838 12.4297V28.5688Z" fill="#DE5318"/>
<path d="M32.2903 21.4724L27.627 21.0838V19.9179L32.2903 19.5293V21.4724Z" fill="#DE5318"/>
<path d="M32.2903 27.107L27.627 25.1639V23.998L32.2903 25.1639V27.107Z" fill="#DE5318"/>
<path d="M32.2903 15.8376L27.627 17.0034V15.8376L32.2903 13.8945V15.8376Z" fill="#DE5318"/>
</g>
<defs>
<clipPath id="clip0_1045_4188">
<rect width="40" height="40" fill="white" transform="translate(0 0.5)"/>
</clipPath>
</defs>
</svg>
