<svg width="40" height="40" viewBox="0 0 40 40" fill="none" xmlns="http://www.w3.org/2000/svg">
<g clip-path="url(#clip0_1045_4211)">
<path d="M20.0019 40C8.97309 40 0 31.0269 0 20.0019C0 8.97697 8.97309 0 20.0019 0C31.0308 0 40.0039 8.97309 40.0039 20.0019C40.0039 31.0308 31.0308 40.0039 20.0019 40.0039V40ZM20.0019 1.16584C9.6143 1.16584 1.16584 9.6143 1.16584 20.0019C1.16584 30.3896 9.6143 38.838 20.0019 38.838C30.3896 38.838 38.838 30.3896 38.838 20.0019C38.838 9.6143 30.3857 1.16584 20.0019 1.16584Z" fill="#DE5318"/>
<path d="M25.59 18.6257L20.0017 11.584L14.4135 18.6257L8.8252 15.1476L11.5921 27.6415C11.5921 27.6415 12.2295 29.025 20.0017 29.025C27.774 29.025 28.4113 27.6415 28.4113 27.6415L31.1783 15.1476L25.59 18.6257Z" fill="#DE5318"/>
</g>
<defs>
<clipPath id="clip0_1045_4211">
<rect width="40" height="40" fill="white"/>
</clipPath>
</defs>
</svg>
