<svg width="40" height="41" viewBox="0 0 40 41" fill="none" xmlns="http://www.w3.org/2000/svg">
<g clip-path="url(#clip0_1045_4508)">
<path d="M19.9981 40.5C8.97309 40.5 0 31.5269 0 20.5019C0 9.47697 8.97309 0.5 19.9981 0.5C31.023 0.5 40 9.47309 40 20.5019C40 31.5308 31.0269 40.5039 19.9981 40.5039V40.5ZM19.9981 1.66584C9.6143 1.66584 1.16584 10.1143 1.16584 20.5019C1.16584 30.8896 9.6143 39.338 19.9981 39.338C30.3818 39.338 38.8342 30.8896 38.8342 20.5019C38.8342 10.1143 30.3857 1.66584 19.9981 1.66584Z" fill="#EA5413"/>
<path d="M31.6996 20.021C31.6996 19.065 30.9263 18.2955 29.9742 18.2955C30.9574 18.2955 31.7502 17.4717 31.6996 16.4768C31.6491 15.5442 30.8136 14.8408 29.877 14.8408H23.5115C23.9507 14.1646 24.1955 13.364 24.1955 12.5518V10.3601C24.1955 9.42349 23.496 8.58797 22.5594 8.53745C21.5646 8.48693 20.7407 9.27582 20.7407 10.2629V12.5518C20.7407 12.75 20.663 12.9404 20.5192 13.0803L15.2496 18.2955C14.9271 18.6142 14.4918 18.7969 14.0371 18.7969H12.7236V28.586H29.298C30.2307 28.586 31.0662 27.8904 31.1167 26.9577C31.1633 26.1261 30.6193 25.4188 29.8654 25.2051H29.9042C30.7398 25.2051 31.5053 24.6416 31.6608 23.8177C31.8706 22.7141 31.0312 21.7503 29.9664 21.7503C30.9224 21.7503 31.6919 20.977 31.6919 20.0249L31.6996 20.021Z" fill="#EA5413"/>
<path d="M11.4175 18.793H8.30078V28.5821H11.4175V18.793Z" fill="#EA5413"/>
</g>
<defs>
<clipPath id="clip0_1045_4508">
<rect width="40" height="40" fill="white" transform="translate(0 0.5)"/>
</clipPath>
</defs>
</svg>
