<svg width="40" height="32" viewBox="0 0 40 32" fill="none" xmlns="http://www.w3.org/2000/svg">
<g clip-path="url(#clip0_1045_3874)">
<path d="M14.1362 22.5397C14.2255 20.9744 13.0178 19.6288 11.445 19.5402C9.86437 19.4476 8.51292 20.6505 8.4236 22.2158C8.33428 23.7811 9.54204 25.1267 11.1187 25.2153C11.177 25.2153 11.2314 25.2192 11.2857 25.2192C11.9886 25.2192 12.6566 24.9686 13.1848 24.4982C13.7556 23.9932 14.0935 23.2992 14.1401 22.5397H14.1362ZM12.4081 23.6346C12.0702 23.9353 11.6352 24.0818 11.1809 24.0587C10.7265 24.0317 10.311 23.8351 10.0119 23.4958C9.71292 23.1565 9.55758 22.7286 9.58476 22.2775C9.63525 21.383 10.3886 20.6891 11.278 20.6891C11.309 20.6891 11.344 20.6891 11.3751 20.6891C12.311 20.743 13.0255 21.5411 12.9712 22.4703C12.944 22.9214 12.7459 23.3339 12.4042 23.6308L12.4081 23.6346Z" fill="#EA5413"/>
<path d="M39.2699 14.5466C39.2699 14.5466 39.2699 14.535 39.2699 14.5273C39.2583 14.4887 39.2427 14.4463 39.2311 14.4078C39.1495 14.1302 39.0641 13.8526 38.9709 13.5788C38.9476 13.5094 38.9243 13.4362 38.8971 13.3668C38.7961 13.0738 38.6874 12.7885 38.5709 12.5032C38.5553 12.4646 38.5398 12.4261 38.5243 12.3914C37.1184 8.96391 34.7767 6.01451 31.8136 3.85162C31.7553 3.80921 31.6932 3.7668 31.635 3.72439C31.4214 3.57403 31.2078 3.42367 30.9903 3.28102C30.8699 3.20005 30.7456 3.12294 30.6252 3.04584C30.466 2.94559 30.3068 2.84921 30.1476 2.75668C29.9922 2.66415 29.833 2.57547 29.6738 2.4868C29.5456 2.4174 29.4136 2.348 29.2816 2.27861C29.099 2.18222 28.9165 2.08969 28.734 2.00102C28.6175 1.94318 28.501 1.89306 28.3845 1.83909C28.2214 1.76584 28.0621 1.68487 27.8951 1.61547C27.8835 1.61162 27.8718 1.60776 27.8563 1.60391C25.4447 0.57451 22.7883 0.0039075 20 0.0039075C8.97087 5.20796e-05 0 8.90608 0 19.8555C0 24.1928 1.38252 28.3104 4 31.7687C4.10874 31.9152 4.28349 32.0001 4.46602 32.0001H9.34369C9.50291 32.0001 9.65825 31.9345 9.76699 31.8188C9.87573 31.7032 9.93398 31.5451 9.92233 31.387L9.81748 29.7909C9.80194 29.5441 9.62718 29.336 9.38641 29.2704C8.53204 29.0391 7.73204 28.6535 7.00583 28.1254C6.80388 27.9788 6.53204 27.975 6.32621 28.1138L5.21553 28.8772L4.0699 27.601L4.96311 26.5948C5.12621 26.4097 5.1534 26.1398 5.02913 25.9239C4.58252 25.149 4.28738 24.3162 4.15534 23.4449C4.1165 23.202 3.9301 23.0054 3.68155 22.9629L2.35728 22.7239L2.45437 21.0198L3.79806 20.935C4.0466 20.9196 4.25631 20.7461 4.32233 20.507C4.55534 19.6588 4.94369 18.8646 5.47573 18.1437C5.6233 17.9432 5.62718 17.6733 5.48738 17.469L4.71845 16.3663L6.00388 15.229L7.01748 16.1157C7.20388 16.2776 7.47573 16.3046 7.6932 16.1813C8.47379 15.7379 9.31262 15.4449 10.1903 15.3138C10.435 15.2752 10.633 15.0902 10.6757 14.8434L10.9165 13.5287L12.633 13.6251L12.7184 14.9591C12.734 15.2058 12.9087 15.414 13.1456 15.4796C14 15.7109 14.8 16.0964 15.5262 16.6246C15.7282 16.7711 16 16.775 16.2058 16.6362L17.3165 15.8728L18.4621 17.149L17.5689 18.1552C17.4058 18.3403 17.3786 18.6102 17.5029 18.8261C17.9495 19.601 18.2447 20.4338 18.3767 21.3051C18.4155 21.5519 18.6019 21.7446 18.8505 21.787L20.1748 22.0261L20.0777 23.7302L18.734 23.815C18.4854 23.8304 18.2757 24.0039 18.2097 24.2391C17.9767 25.0873 17.5883 25.8815 17.0563 26.6025C16.9087 26.8029 16.9049 27.0728 17.0447 27.2772L17.8136 28.3798L16.5282 29.5172L15.5146 28.6304C15.3282 28.4685 15.0563 28.4376 14.8388 28.5649C14.0583 29.0082 13.2194 29.3013 12.3417 29.4323C12.0971 29.4709 11.899 29.656 11.8563 29.9027L11.5961 31.3176C11.565 31.4873 11.6117 31.6608 11.7204 31.7919C11.8291 31.9229 11.9961 32.0001 12.167 32.0001H35.5223C35.7049 32.0001 35.8796 31.9152 35.9883 31.7687C38.6058 28.3104 39.9883 24.189 39.9883 19.8555C39.9883 18.0164 39.7282 16.2391 39.2583 14.5466H39.2699ZM37.1612 17.2916L38.2602 18.6873L36.5942 20.3413L35.1883 19.2502C34.9903 19.0998 34.7184 19.0882 34.5126 19.2232C33.5728 19.8323 32.5437 20.2564 31.4563 20.4839C31.2116 20.534 31.0291 20.7345 30.9981 20.9813L30.7806 22.7316H28.4233L28.2058 20.9813C28.1748 20.7345 27.9922 20.5379 27.7476 20.4839C26.6641 20.2564 25.635 19.8323 24.6913 19.2232C24.4816 19.0882 24.2097 19.0998 24.0155 19.2502L22.6097 20.3413L20.9437 18.6873L22.0427 17.2916C22.1981 17.095 22.2097 16.8251 22.0699 16.6208C21.4563 15.6839 21.0252 14.6661 20.8 13.5866C20.7495 13.3437 20.5476 13.1625 20.299 13.1316L18.5359 12.9157V10.5755L20.299 10.3596C20.5476 10.3287 20.7456 10.1475 20.8 9.90463C21.0252 8.82897 21.4563 7.80728 22.0699 6.87041C22.2058 6.66222 22.1942 6.39234 22.0427 6.19957L20.9437 4.80391L22.6097 3.14993L24.0155 4.24102C24.2136 4.39523 24.4854 4.40294 24.6913 4.268C25.635 3.65885 26.6602 3.2309 27.7476 3.00728C27.8252 2.99186 27.899 2.95716 27.9612 2.91475C28.0155 2.93788 28.0699 2.96102 28.1204 2.988C28.1942 3.0227 28.268 3.06126 28.3417 3.09981C28.5515 3.20391 28.7573 3.30415 28.9631 3.41596C29.0214 3.4468 29.0796 3.48535 29.1417 3.5162C29.4019 3.65885 29.6544 3.80921 29.9068 3.96343C30.132 4.10222 30.3534 4.24102 30.5709 4.39138C30.6058 4.41451 30.6408 4.4415 30.6796 4.46849C30.9204 4.63427 31.1573 4.80391 31.3903 4.98126C31.4058 4.99282 31.4214 5.00439 31.433 5.01596C34.0699 7.02849 36.1592 9.71957 37.4291 12.7808C37.433 12.7923 37.4408 12.8078 37.4447 12.8193C37.5612 13.0969 37.666 13.3822 37.7709 13.6675C37.7903 13.7254 37.8097 13.7832 37.8291 13.841C37.9146 14.0878 37.9961 14.3384 38.0699 14.5928C38.0777 14.6237 38.0854 14.6545 38.0971 14.6854C37.8563 15.3755 37.534 16.0309 37.1379 16.6285C37.0019 16.8367 37.0136 17.1066 37.165 17.2993L37.1612 17.2916ZM20.6757 24.856C20.9709 24.8367 21.2039 24.6054 21.2194 24.3123L21.3786 21.5866C21.3942 21.2935 21.1922 21.0352 20.901 20.9851L19.468 20.7268C19.3204 19.9981 19.0718 19.2926 18.7262 18.6217L19.6893 17.5345C19.8835 17.3148 19.8835 16.987 19.6893 16.7673L17.8602 14.7278C17.666 14.508 17.3359 14.4694 17.0951 14.6391L15.8951 15.4641C15.266 15.0478 14.5864 14.7201 13.8757 14.4926L13.7825 13.0507C13.7631 12.7576 13.5301 12.5263 13.235 12.5109L10.4893 12.3528C10.1942 12.3374 9.93398 12.5379 9.8835 12.827L9.6233 14.2497C8.88932 14.3962 8.17864 14.6429 7.50291 14.9861L6.40777 14.0299C6.18641 13.8372 5.85631 13.8372 5.63495 14.0299L3.58058 15.8458C3.35922 16.0386 3.32039 16.3663 3.48738 16.6054L4.31845 17.7967C3.89903 18.4213 3.56893 19.096 3.33981 19.8015L1.88738 19.894C1.59223 19.9133 1.35922 20.1446 1.34369 20.4376L1.26602 21.7408C1.20388 21.1162 1.17282 20.4878 1.17282 19.8516C1.16505 9.54608 9.61553 1.15668 20 1.15668C22.1942 1.15668 24.3029 1.53451 26.2602 2.22463C25.6194 2.44824 25.0019 2.72969 24.4116 3.08053L22.9204 1.92391C22.6874 1.7427 22.3573 1.76198 22.1515 1.97017L19.7553 4.34897C19.5456 4.55716 19.5262 4.88487 19.7087 5.11234L20.8738 6.59282C20.3689 7.42945 19.9961 8.32391 19.7553 9.26078L17.8835 9.48825C17.5922 9.52294 17.3709 9.76969 17.3709 10.0627V13.4285C17.3709 13.7215 17.5922 13.9682 17.8835 14.0029L19.7553 14.2304C19.9961 15.1673 20.3689 16.0617 20.8738 16.8984L19.7087 18.3788C19.5262 18.6102 19.5456 18.9379 19.7553 19.1422L22.1515 21.521C22.3612 21.7292 22.6913 21.7485 22.9204 21.5673L24.4116 20.4107C25.2544 20.9119 26.1553 21.282 27.099 21.521L27.3282 23.3793C27.3631 23.6685 27.6117 23.8882 27.9068 23.8882H31.2971C31.5922 23.8882 31.8408 23.6685 31.8757 23.3793L32.1049 21.521C33.0485 21.282 33.9495 20.9119 34.7922 20.4107L36.2835 21.5673C36.5165 21.7485 36.8466 21.7254 37.0524 21.521L38.8311 19.7552C38.8311 19.7899 38.8311 19.8246 38.8311 19.8593C38.8311 20.4261 38.8039 20.989 38.7534 21.548C37.8252 23.121 35.6427 25.2261 30.5942 25.2261H19.1184C19.1534 25.1374 19.1883 25.0449 19.2194 24.9562L20.6718 24.8637L20.6757 24.856Z" fill="#EA5413"/>
<path d="M29.6003 8.37695C27.7284 8.37695 26.21 9.88828 26.21 11.7427C26.21 13.5972 27.7323 15.1085 29.6003 15.1085C31.4682 15.1085 32.9905 13.5972 32.9905 11.7427C32.9905 9.88828 31.4682 8.37695 29.6003 8.37695ZM29.6003 13.9557C28.3731 13.9557 27.375 12.9649 27.375 11.7466C27.375 10.5283 28.3731 9.53744 29.6003 9.53744C30.8274 9.53744 31.8255 10.5283 31.8255 11.7466C31.8255 12.9649 30.8274 13.9557 29.6003 13.9557Z" fill="#EA5413"/>
</g>
<defs>
<clipPath id="clip0_1045_3874">
<rect width="40" height="32" fill="white"/>
</clipPath>
</defs>
</svg>
