<svg width="40" height="32" viewBox="0 0 40 32" fill="none" xmlns="http://www.w3.org/2000/svg">
<g clip-path="url(#clip0_1045_3752)">
<path d="M27.7978 28.0713H12.2017C11.8793 28.0713 11.6191 28.3296 11.6191 28.6496V31.4217C11.6191 31.7417 11.8793 32 12.2017 32H27.8017C28.124 32 28.3842 31.7417 28.3842 31.4217V28.6496C28.3842 28.3296 28.124 28.0713 27.8017 28.0713H27.7978Z" fill="#EA5413"/>
<path d="M20 0C8.97087 0 0 8.90602 0 19.8554C0 24.1928 1.38252 28.3104 4 31.7687C4.10874 31.9152 4.28349 32 4.46602 32H8.76116C9.0835 32 9.34369 31.7417 9.34369 31.4217V28.6496C9.34369 28.3296 9.0835 28.0713 8.76116 28.0713H7.18447L6.16311 22.508C5.98835 21.5557 6.04272 20.561 6.31845 19.6357L8.59029 11.9827C8.97087 10.6988 10.1825 9.80048 11.534 9.80048H28.4233C29.7748 9.80048 30.9825 10.6988 31.367 11.9827L33.6854 19.7899C33.9379 20.6381 34.0039 21.5133 33.8835 22.3923L33.099 28.0752H31.2388C30.9165 28.0752 30.6563 28.3335 30.6563 28.6535V31.4255C30.6563 31.7455 30.9165 32.0039 31.2388 32.0039H35.534C35.7165 32.0039 35.8913 31.919 36 31.7725C38.6175 28.3142 40 24.1928 40 19.8593C40 8.90602 31.0291 0 20 0ZM28.4233 8.64H11.534C9.6699 8.64 8 9.87759 7.47573 11.6549L6.05049 16.4472H4.23689C3.92233 16.4472 3.66602 16.7017 3.66602 17.014V18.4366C3.66602 18.7489 3.92233 19.0034 4.23689 19.0034H5.2932L5.20388 19.308C4.87767 20.4106 4.81553 21.5865 5.02136 22.7161L5.37864 24.6554C3.08738 23.9229 1.87573 22.6082 1.2466 21.5402C1.19612 20.9812 1.16893 20.4222 1.16893 19.8554C1.16505 9.54602 9.61553 1.15663 20 1.15663C30.3845 1.15663 38.8349 9.54602 38.8349 19.8554C38.8349 20.4222 38.8078 20.9851 38.7573 21.5402C38.1398 22.5889 36.9592 23.8728 34.7495 24.613L35.0369 22.5427C35.1806 21.5017 35.1029 20.4646 34.8039 19.4583L34.668 18.9995H35.7592C36.0738 18.9995 36.3301 18.7451 36.3301 18.4328V17.0101C36.3301 16.6978 36.0738 16.4434 35.7592 16.4434H33.9107L32.4854 11.6511C31.9573 9.87759 30.2874 8.63614 28.4272 8.63614L28.4233 8.64Z" fill="#EA5413"/>
<path d="M30.7766 16.1385L29.6892 12.472C29.5222 11.9129 29.0096 11.5312 28.4232 11.5312H11.5339C10.9475 11.5312 10.4349 11.9129 10.2679 12.472L9.21156 16.0344C9.04068 16.605 9.47175 17.1794 10.0698 17.1833L29.9067 17.2912C30.5125 17.2912 30.9475 16.7168 30.7766 16.1423V16.1385Z" fill="#EA5413"/>
<path d="M23.7128 22.1494H16.2837C15.962 22.1494 15.7012 22.4083 15.7012 22.7277V25.2222C15.7012 25.5416 15.962 25.8005 16.2837 25.8005H23.7128C24.0345 25.8005 24.2953 25.5416 24.2953 25.2222V22.7277C24.2953 22.4083 24.0345 22.1494 23.7128 22.1494Z" fill="#EA5413"/>
</g>
<defs>
<clipPath id="clip0_1045_3752">
<rect width="40" height="32" fill="white"/>
</clipPath>
</defs>
</svg>
