<svg width="40" height="32" viewBox="0 0 40 32" fill="none" xmlns="http://www.w3.org/2000/svg">
<g clip-path="url(#clip0_1045_3825)">
<path d="M30.3732 17.8578L27.3985 17.9773C27.0762 17.9889 26.8276 18.2588 26.8393 18.5788C26.8509 18.8911 27.1111 19.134 27.4218 19.134C27.4296 19.134 27.4373 19.134 27.4451 19.134L30.4198 19.0144C30.7422 19.0029 30.9907 18.733 30.9791 18.413C30.9674 18.093 30.6917 17.8462 30.3732 17.8578Z" fill="#EA5413"/>
<path d="M20 0C8.97087 0 0 8.90602 0 19.8554C0 24.1928 1.38252 28.3104 4 31.7687C4.10874 31.9152 4.28349 32 4.46602 32H35.534C35.7165 32 35.8913 31.9152 36 31.7687C38.6175 28.3104 40 24.1889 40 19.8554C40 8.90602 31.0291 0 20 0ZM3.12621 23.5451C2.20583 22.8896 1.61553 22.1455 1.23883 21.494C1.19223 20.9542 1.16505 20.4067 1.16505 19.8554C1.16505 9.54602 9.61553 1.15663 20 1.15663C25.9689 1.15663 31.2971 3.93253 34.7495 8.24675H31.9184C26.3456 8.24675 21.301 8.55518 16.035 12.3296L6.75728 17.6386C4.97864 18.6872 3.35146 21.3899 3.12233 23.5451H3.12621ZM14.7456 30.5619C13.0408 30.5619 11.6544 29.1855 11.6544 27.493C11.6544 25.8005 13.0408 24.4241 14.7456 24.4241C16.4505 24.4241 17.8369 25.8005 17.8369 27.493C17.8369 29.1855 16.4505 30.5619 14.7456 30.5619ZM19.5223 27.4545C19.4835 24.8598 17.3476 22.7624 14.7262 22.7624C12.1049 22.7624 9.96505 24.8598 9.92621 27.4545H6.03107C5.27767 27.4545 4.64078 26.9841 4.38447 26.3248C4.60194 26.001 4.8932 25.4226 4.8932 24.6053C4.8932 23.788 4.62136 23.2058 4.4233 22.8935C4.64078 22.0453 5.06408 21.1508 5.60388 20.372C6.08544 20.399 6.7534 20.426 7.65437 20.4414C9.82524 20.48 9.81748 19.1961 9.81748 19.1961C9.81748 19.1961 12.1282 17.7581 9.87184 18.1205C8.91262 18.2747 7.94563 18.5253 7.14175 18.7643C7.21165 18.7181 7.27767 18.6718 7.34757 18.6294L16.6447 13.3089C16.6447 13.3089 16.6796 13.2896 16.6951 13.2781C21.2583 9.99711 25.4019 9.39952 31.9184 9.39952H35.6116C35.8369 9.72723 36.0466 10.0665 36.2485 10.4135H31.4874C26.1087 10.4135 22.4777 10.8376 18.8621 12.9773L18.3262 13.3205H17.7864C17.0913 13.3205 16.4816 13.7639 16.2718 14.4231L16.1864 14.693L14.6136 15.6684C14.2874 15.8728 14.4466 16.374 14.8311 16.3508L16.0388 16.2814C16.0777 16.3663 16.1204 16.4472 16.1786 16.5243C16.435 16.8675 16.8272 17.0641 17.2544 17.0641H20.6136C21.0874 17.0641 21.5379 16.8366 21.8136 16.4549C21.9301 16.2969 22 16.1157 22.0427 15.9306L22.9359 15.8805L38.1786 14.9937C38.5981 16.5436 38.8272 18.1706 38.8272 19.8516C38.8272 22.5118 38.2641 25.0795 37.2 27.4506H19.5184L19.5223 27.4545ZM20.8738 15.7841C20.8388 15.8342 20.7573 15.9152 20.6175 15.9152H17.2583C17.1845 15.9152 17.1379 15.8728 17.1184 15.8458C17.099 15.8188 17.0718 15.7648 17.0913 15.6954L17.3825 14.7778C17.4369 14.6005 17.6 14.4848 17.7864 14.4848H20.1748C20.4155 14.4848 20.6252 14.6352 20.7029 14.8626L20.9165 15.5065C20.9592 15.6376 20.9087 15.7417 20.8738 15.788V15.7841Z" fill="#EA5413"/>
</g>
<defs>
<clipPath id="clip0_1045_3825">
<rect width="40" height="32" fill="white"/>
</clipPath>
</defs>
</svg>
