<svg width="29" height="24" viewBox="0 0 29 24" fill="none" xmlns="http://www.w3.org/2000/svg">
<path d="M27.3626 6.49969C26.9715 6.30799 26.5281 6.25051 26.101 6.33615C25.674 6.42179 25.287 6.64577 25.0001 6.97344L20.7913 11.5097L16.3163 1.47344C16.3161 1.46928 16.3161 1.46511 16.3163 1.46094C16.1563 1.11387 15.9002 0.819922 15.5783 0.613882C15.2564 0.407841 14.8822 0.29834 14.5001 0.29834C14.1179 0.29834 13.7437 0.407841 13.4218 0.613882C13.0999 0.819922 12.8438 1.11387 12.6838 1.46094C12.684 1.46511 12.684 1.46928 12.6838 1.47344L8.20882 11.5097L4.00007 6.97344C3.71128 6.6457 3.32313 6.42153 2.89493 6.33517C2.46673 6.2488 2.02203 6.305 1.62878 6.49518C1.23553 6.68536 0.915359 6.99905 0.717183 7.38833C0.519007 7.77761 0.453727 8.22107 0.531318 8.65094C0.531318 8.66469 0.531318 8.67719 0.540068 8.69094L3.37507 21.6747C3.46234 22.1319 3.70634 22.5443 4.06502 22.8409C4.42371 23.1376 4.87462 23.2998 5.34007 23.2997H23.6613C24.1266 23.2995 24.5772 23.1371 24.9356 22.8405C25.294 22.5439 25.5378 22.1317 25.6251 21.6747L28.4601 8.69094C28.4601 8.67719 28.4601 8.66469 28.4688 8.65094C28.5479 8.22053 28.4822 7.77606 28.2821 7.38689C28.082 6.99772 27.7587 6.68575 27.3626 6.49969ZM23.6688 21.2597L23.6613 21.2997H5.33882L5.33132 21.2597L2.50007 8.29969L2.51757 8.31969L7.76757 13.9747C7.87999 14.0962 8.0208 14.1878 8.17738 14.2415C8.33396 14.2951 8.5014 14.3091 8.6647 14.2821C8.82799 14.2551 8.98203 14.1879 9.11299 14.0867C9.24396 13.9855 9.34775 13.8534 9.41507 13.7022L14.5001 2.29969L19.5863 13.7059C19.6536 13.8571 19.7574 13.9893 19.8884 14.0905C20.0194 14.1917 20.1734 14.2588 20.3367 14.2858C20.5 14.3128 20.6674 14.2989 20.824 14.2452C20.9806 14.1916 21.1214 14.0999 21.2338 13.9784L26.4838 8.32344L26.5001 8.29969L23.6688 21.2597Z" fill="#EA5413"/>
</svg>
