<svg width="40" height="33" viewBox="0 0 40 33" fill="none" xmlns="http://www.w3.org/2000/svg">
<g clip-path="url(#clip0_70_3004)">
<path d="M20 0C8.97087 0 0 9.18434 0 20.4759C0 24.9488 1.38252 29.1951 4 32.7614C4.10874 32.9125 4.2835 33 4.46602 33H9.40194C9.72427 33 9.98447 32.7336 9.98447 32.4036V13.3431L13.7748 8.49253C13.9767 8.2341 13.934 7.86036 13.6854 7.65362C13.433 7.44687 13.068 7.4906 12.866 7.74506L8.94757 12.7587C8.86602 12.866 8.81942 12.9972 8.81942 13.1324V25.9945C4.19029 25.8314 2.13592 23.7719 1.24272 22.2134C1.19223 21.6369 1.16505 21.0564 1.16505 20.4719C1.16505 9.84434 9.61553 1.19277 20 1.19277C30.3845 1.19277 38.835 9.84434 38.835 20.4759C38.835 21.0604 38.8078 21.6408 38.7573 22.2134C37.868 23.7719 35.8136 25.8354 31.1806 25.9945V9.15651C31.1806 8.88615 31.0019 8.64759 30.7456 8.58L15.7631 4.6041C15.5884 4.55639 15.4019 4.59615 15.2621 4.71145C15.1223 4.82675 15.0369 4.99771 15.0369 5.18458V32.4076C15.0369 32.7376 15.2971 33.004 15.6194 33.004C15.9417 33.004 16.2019 32.7376 16.2019 32.4076V5.95193L30.0194 9.61771V32.4036C30.0194 32.7336 30.2796 33 30.6019 33H35.5379C35.7204 33 35.8951 32.9125 36.0039 32.7614C38.6214 29.1951 40.0039 24.9448 40.0039 20.4759C40 9.18434 31.0291 0 20 0Z" fill="#EA5413"/>
<path d="M17.8057 11.0085L20.9202 11.6288V9.0961L17.8057 8.4043V11.0085Z" fill="#EA5413"/>
<path d="M22.2021 11.8837L25.0759 12.4522V10.0229L22.2021 9.38281V11.8837Z" fill="#EA5413"/>
<path d="M26.2637 12.6906L28.9239 13.2194V10.8776L26.2637 10.2852V12.6906Z" fill="#EA5413"/>
<path d="M17.8057 14.8093L20.9202 15.3222V12.7895L17.8057 12.2051V14.8093Z" fill="#EA5413"/>
<path d="M22.2021 15.534L25.0759 16.0072V13.5739L22.2021 13.0332V15.534Z" fill="#EA5413"/>
<path d="M26.2637 16.2023L28.9239 16.6396V14.2978L26.2637 13.7969V16.2023Z" fill="#EA5413"/>
<path d="M17.8057 18.612L20.9202 19.0176V16.4889L17.8057 16.0078V18.612Z" fill="#EA5413"/>
<path d="M22.2021 19.1844L25.0759 19.5582V17.1249L22.2021 16.6836V19.1844Z" fill="#EA5413"/>
<path d="M26.2637 19.7121L28.9239 20.058V17.7162L26.2637 17.3066V19.7121Z" fill="#EA5413"/>
</g>
<defs>
<clipPath id="clip0_70_3004">
<rect width="40" height="33" fill="white"/>
</clipPath>
</defs>
</svg>
