<svg width="26" height="33" viewBox="0 0 26 33" fill="none" xmlns="http://www.w3.org/2000/svg">
<path d="M23.6364 30.6429H16.3298C17.5572 29.5499 18.7147 28.3813 19.7955 27.144C23.8506 22.493 26 17.5902 26 12.9643C26 9.52594 24.6304 6.22843 22.1924 3.79715C19.7544 1.36588 16.4478 0 13 0C9.55219 0 6.24558 1.36588 3.80761 3.79715C1.36964 6.22843 0 9.52594 0 12.9643C0 17.5902 2.14352 22.493 6.20455 27.144C7.28533 28.3813 8.44283 29.5499 9.67023 30.6429H2.36364C2.0502 30.6429 1.7496 30.767 1.52796 30.9881C1.30633 31.2091 1.18182 31.5089 1.18182 31.8214C1.18182 32.134 1.30633 32.4338 1.52796 32.6548C1.7496 32.8758 2.0502 33 2.36364 33H23.6364C23.9498 33 24.2504 32.8758 24.472 32.6548C24.6937 32.4338 24.8182 32.134 24.8182 31.8214C24.8182 31.5089 24.6937 31.2091 24.472 30.9881C24.2504 30.767 23.9498 30.6429 23.6364 30.6429ZM2.36364 12.9643C2.36364 10.1511 3.48425 7.45313 5.47895 5.4639C7.47366 3.47468 10.1791 2.35714 13 2.35714C15.8209 2.35714 18.5263 3.47468 20.521 5.4639C22.5157 7.45313 23.6364 10.1511 23.6364 12.9643C23.6364 21.3955 15.4419 28.433 13 30.3482C10.5581 28.433 2.36364 21.3955 2.36364 12.9643ZM18.9091 12.9643C18.9091 11.7988 18.5625 10.6595 17.9132 9.69039C17.2639 8.72131 16.3411 7.96601 15.2613 7.52C14.1816 7.07398 12.9934 6.95728 11.8472 7.18466C10.7009 7.41204 9.64804 7.97328 8.82164 8.79741C7.99524 9.62154 7.43245 10.6715 7.20445 11.8146C6.97645 12.9577 7.09347 14.1426 7.54071 15.2194C7.98796 16.2962 8.74534 17.2165 9.71708 17.864C10.6888 18.5115 11.8313 18.8571 13 18.8571C14.5672 18.8571 16.0702 18.2363 17.1784 17.1312C18.2865 16.026 18.9091 14.5272 18.9091 12.9643ZM9.45455 12.9643C9.45455 12.265 9.66248 11.5814 10.0521 10.9999C10.4416 10.4185 10.9954 9.96532 11.6432 9.69771C12.2911 9.4301 13.0039 9.36008 13.6917 9.49651C14.3794 9.63294 15.0112 9.96968 15.507 10.4642C16.0029 10.9586 16.3405 11.5886 16.4773 12.2745C16.6141 12.9604 16.5439 13.6713 16.2756 14.3173C16.0072 14.9634 15.5528 15.5156 14.9697 15.9041C14.3867 16.2926 13.7012 16.5 13 16.5C12.0597 16.5 11.1579 16.1275 10.493 15.4644C9.82808 14.8013 9.45455 13.902 9.45455 12.9643Z" fill="#EA5413"/>
</svg>
