<svg width="40" height="34" viewBox="0 0 40 34" fill="none" xmlns="http://www.w3.org/2000/svg">
<path d="M36.5408 3.17439C34.6487 1.31215 32.0862 0.26492 29.4136 0.261702C26.7411 0.258483 24.176 1.29954 22.2793 3.15721L20.0022 5.24422L17.7233 3.15034C15.8271 1.28458 13.2573 0.238493 10.5793 0.242197C7.9013 0.245902 5.3345 1.2991 3.44354 3.1701C1.55257 5.04109 0.492349 7.57663 0.496104 10.2189C0.499858 12.8612 1.56728 15.3938 3.46356 17.2595L19.0186 32.8322C19.1482 32.9621 19.3026 33.0652 19.473 33.1356C19.6433 33.2059 19.8262 33.2422 20.0109 33.2422C20.1956 33.2422 20.3784 33.2059 20.5488 33.1356C20.7191 33.0652 20.8736 32.9621 21.0032 32.8322L36.5408 17.2595C38.4331 15.3914 39.4961 12.8582 39.4961 10.217C39.4961 7.57573 38.4331 5.04258 36.5408 3.17439ZM34.5649 15.3289L20.0022 29.9018L5.43078 15.3151C4.05948 13.9621 3.28909 12.127 3.28909 10.2135C3.28909 8.30007 4.05948 6.46498 5.43078 5.11196C6.80208 3.75894 8.66196 2.99882 10.6013 2.99882C12.5406 2.99882 14.4005 3.75894 15.7718 5.11196L15.8066 5.14631L19.0534 8.12653C19.3111 8.36317 19.6501 8.49473 20.0022 8.49473C20.3542 8.49473 20.6932 8.36317 20.951 8.12653L24.1978 5.14631L24.2326 5.11196C25.6048 3.75985 27.4652 3.00096 29.4045 3.00225C31.3438 3.00354 33.2032 3.7649 34.5736 5.11883C35.9439 6.47276 36.7131 8.30837 36.7118 10.2218C36.7105 12.1353 35.9388 13.9699 34.5666 15.322L34.5649 15.3289Z" fill="#EA5413"/>
</svg>
