<svg width="40" height="33" viewBox="0 0 40 33" fill="none" xmlns="http://www.w3.org/2000/svg">
<g clip-path="url(#clip0_70_3079)">
<path d="M27.7978 28.9492H12.2017C11.8793 28.9492 11.6191 29.2156 11.6191 29.5456V32.4043C11.6191 32.7343 11.8793 33.0007 12.2017 33.0007H27.8017C28.124 33.0007 28.3842 32.7343 28.3842 32.4043V29.5456C28.3842 29.2156 28.124 28.9492 27.8017 28.9492H27.7978Z" fill="#EA5413"/>
<path d="M20 0C8.97087 0 0 9.18434 0 20.4759C0 24.9488 1.38252 29.1951 4 32.7614C4.10874 32.9125 4.2835 33 4.46602 33H8.76116C9.08349 33 9.34369 32.7336 9.34369 32.4036V29.5449C9.34369 29.2149 9.08349 28.9486 8.76116 28.9486H7.18447L6.16311 23.2113C5.98835 22.2293 6.04272 21.2035 6.31845 20.2493L8.59029 12.3571C8.97087 11.0331 10.1825 10.1067 11.534 10.1067H28.4233C29.7748 10.1067 30.9825 11.0331 31.367 12.3571L33.6854 20.4083C33.9379 21.283 34.0039 22.1855 33.8835 23.0921L33.099 28.9525H31.2388C30.9165 28.9525 30.6563 29.2189 30.6563 29.5489V32.4076C30.6563 32.7376 30.9165 33.004 31.2388 33.004H35.534C35.7165 33.004 35.8913 32.9165 36 32.7654C38.6175 29.199 40 24.9488 40 20.4799C40 9.18434 31.0291 0 20 0ZM28.4233 8.91H11.534C9.6699 8.91 8 10.1863 7.47573 12.0192L6.05049 16.9612H4.23689C3.92233 16.9612 3.66602 17.2236 3.66602 17.5457V19.0128C3.66602 19.3348 3.92233 19.5972 4.23689 19.5972H5.2932L5.20388 19.9113C4.87767 21.0484 4.81553 22.2611 5.02136 23.426L5.37864 25.4259C3.08738 24.6705 1.87573 23.3147 1.2466 22.2134C1.19612 21.6369 1.16893 21.0604 1.16893 20.4759C1.16505 9.84434 9.61553 1.19277 20 1.19277C30.3845 1.19277 38.835 9.84434 38.835 20.4759C38.835 21.0604 38.8078 21.6408 38.7573 22.2134C38.1398 23.2948 36.9592 24.6188 34.7495 25.3822L35.0369 23.2471C35.1806 22.1736 35.1029 21.1041 34.8039 20.0664L34.668 19.5933H35.7592C36.0738 19.5933 36.3301 19.3308 36.3301 19.0088V17.5417C36.3301 17.2196 36.0738 16.9572 35.7592 16.9572H33.9107L32.4854 12.0152C31.9573 10.1863 30.2874 8.90602 28.4272 8.90602L28.4233 8.91Z" fill="#EA5413"/>
<path d="M30.7766 16.6418L29.6892 12.8607C29.5222 12.2842 29.0096 11.8906 28.4232 11.8906H11.5339C10.9475 11.8906 10.4349 12.2842 10.2679 12.8607L9.21156 16.5345C9.04068 17.1229 9.47175 17.7153 10.0698 17.7193L29.9067 17.8306C30.5125 17.8306 30.9475 17.2382 30.7766 16.6458V16.6418Z" fill="#EA5413"/>
<path d="M23.7128 22.8398H16.2837C15.962 22.8398 15.7012 23.1069 15.7012 23.4362V26.0086C15.7012 26.338 15.962 26.605 16.2837 26.605H23.7128C24.0345 26.605 24.2953 26.338 24.2953 26.0086V23.4362C24.2953 23.1069 24.0345 22.8398 23.7128 22.8398Z" fill="#EA5413"/>
</g>
<defs>
<clipPath id="clip0_70_3079">
<rect width="40" height="33" fill="white"/>
</clipPath>
</defs>
</svg>
